<svg xmlns="http://www.w3.org/2000/svg" width="1024" height="1024"><path d="M737 96.666c-68.11 3.67-124.862 14.787-159.561 31.255-23.271 11.045-35.609 22.503-39.851 37.011-1.423 4.865-1.588 22.75-1.588 171.75C536 479.748 535.801 503 534.579 503c-.782 0-7.419-5.984-14.75-13.298-28.642-28.577-57.436-41.968-99.435-46.243l-6.106-.622-2.721-6.668c-10.525-25.797-32.266-51.718-57.644-68.726-24.199-16.219-51.058-24.875-81.038-26.118-28.75-1.192-53.826 4.31-78.885 17.308-41.971 21.77-72.044 60.915-82.101 106.867-1.217 5.564-2.402 16.902-3.102 29.698l-1.132 20.698-2.855 1.183c-5.393 2.234-20.59 11.664-28.446 17.651-17.735 13.518-36.907 36.984-46.204 56.553C20.144 612.365 16.121 629.085 15.312 653c-.957 28.283 3.357 48.494 15.688 73.5 24.331 49.339 71.93 82.164 126.902 87.514 13.124 1.278 395.715 1.255 407.853-.024 40.913-4.31 75.782-22.182 103.845-53.224 21.26-23.519 35.983-57.344 38.059-87.443.348-5.048.928-9.655 1.289-10.238.461-.746 4.791-.722 14.604.081 18.54 1.517 80.879 1.492 100.948-.041 104.572-7.988 172.036-31.728 184.519-64.931 1.973-5.248 1.992-7.61 1.738-219L1010.5 165.5l-2.823-5.75c-5.911-12.036-17.715-22.046-36.804-31.209-34.728-16.671-88.545-27.589-155.373-31.521-15.234-.897-64.32-1.118-78.5-.354m5 27.926c-51.152 2.812-90.052 8.372-121.724 17.397-35.966 10.248-58.177 23.589-55.7 33.456.339 1.354 2.718 4.427 5.284 6.827 18.533 17.335 70.884 31.854 138.14 38.312 22.273 2.138 83.987 2.997 108.5 1.51 63.615-3.86 116.838-14.865 146.846-30.364 8.838-4.565 18.121-12.472 19.067-16.24 2.448-9.752-19.862-23.319-54.971-33.429-23.624-6.803-62.656-13.201-97.942-16.056-13.151-1.064-75.527-2.072-87.5-1.413M564 262.549c0 48.397.054 49.803 2.053 53.037 2.87 4.644 10.022 9.619 22.104 15.377 72.097 34.358 242.114 39.778 341.773 10.896 25.083-7.269 45.896-17.988 51.017-26.273 1.999-3.234 2.053-4.64 2.053-53.037 0-27.344-.337-49.544-.75-49.335-22.896 11.624-42.067 18.464-67.75 24.171-43.051 9.567-86.073 13.765-141 13.759-44.331-.006-80.57-2.747-115.493-8.737-39.742-6.816-64.362-14.523-93.257-29.193-.413-.209-.75 21.991-.75 49.335m0 138.478v50.813l5.75 5.131c3.581 3.196 9.899 7.157 16.75 10.501 65.608 32.025 216.112 40.166 321 17.363 36.482-7.931 68.449-22.101 73.977-32.79 1.304-2.522 1.523-10.056 1.523-52.33v-49.384l-10.675 5.278c-27.9 13.796-70.17 23.856-123.331 29.351-102.463 10.591-219.62-1.977-274.403-29.437L564 350.214v50.813m-311-30.983c-16.724 1.739-36.888 8.145-51.025 16.211-32.527 18.56-53.885 48.018-62.529 86.245-1.092 4.828-1.736 14.292-2.077 30.5-.271 12.925-.946 24.678-1.498 26.119-1.666 4.342-6.965 8.621-14.548 11.748-38.612 15.922-66.694 50.57-75.888 93.633-2.597 12.162-2.393 36.003.42 49.234 5.505 25.887 16.227 45.606 35.016 64.395 19.844 19.843 42.455 31.496 70.51 36.338 7.779 1.343 33.837 1.533 210 1.529 221.119-.004 209.247.312 229.371-6.122 27.705-8.858 51.928-26.995 67.667-50.666 8.289-12.466 13.801-24.876 17.86-40.208 2.828-10.686 3.05-12.775 3.129-29.5.093-19.883-1.125-27.865-6.639-43.5-12.827-36.371-41.677-65.155-78.081-77.902-18.586-6.508-34.942-8.315-60.688-6.704-14.173.886-14.624.66-25.377-12.708-7.801-9.701-14.359-15.899-25.232-23.849-18.853-13.786-46.986-22.803-71.317-22.859-10.635-.024-16.697-1.946-19.465-6.171-.851-1.299-2.681-5.836-4.068-10.084-12.124-37.143-43.731-67.903-82.286-80.083-16.391-5.178-36.728-7.315-53.255-5.596m37.5 52.85c-4.018 1.747-6 5.086-6 10.106 0 5.888 1.327 7.49 10.862 13.118 27.578 16.274 46.107 38.668 56.58 68.382 4.958 14.067 8.422 16.484 23.632 16.494 19.958.014 42.62 6.718 64.426 19.06 4.503 2.548 6.292 3.027 9.868 2.639 6.19-.672 9.632-4.298 9.632-10.15 0-5.683-2.764-8.655-13.784-14.819-19.25-10.768-40.316-16.981-65.26-19.246l-7.044-.64-1.818-5.169c-2.365-6.724-9.655-21.296-14.254-28.493-11.492-17.981-29.568-34.99-50.049-47.095-7.299-4.313-13.147-5.772-16.791-4.187M564 494.757c0 4.999.395 7.412 1.25 7.641.688.185 6.2 1.102 12.25 2.038 41.181 6.372 80.914 32.155 104.891 68.064 10.494 15.716 19.565 37.072 22.724 53.5.688 3.575 1.506 6.801 1.818 7.169 2.242 2.644 83.951 3.967 114.567 1.856 71.598-4.939 129.742-19.159 153.962-37.652 7.911-6.04 7.538-3.093 7.538-59.598v-50.324l-11.587 5.716c-30.645 15.119-78.414 25.559-141.913 31.017-22.866 1.965-94.146 1.655-117.5-.511-61.992-5.749-106.391-15.695-136.602-30.599L564 487.451v7.306M324.364 839.17c-3.412 1.652-4.364 5.225-4.364 16.377V866h-11c-9.667 0-11.242.242-13 2-1.1 1.1-2.044 2.788-2.099 3.75-.054.962-.166 2.875-.25 4.25l-.151 2.5-62.218.5c-57.244.46-62.38.639-64.25 2.24-1.84 1.576-2.032 2.913-2.032 14.139 0 10.717.259 12.72 1.911 14.76l1.912 2.361 62.588.272c52.966.23 62.589.488 62.589 1.677 0 .773 1.186 2.339 2.635 3.478 2.588 2.037 3.544 2.073 54.435 2.073 31.405 0 52.815-.386 54.377-.98 1.418-.539 3.094-2.114 3.726-3.5l1.148-2.52h48.889c51.53 0 53.487-.161 55.169-4.545.341-.89.621-6.777.621-13.082 0-10.838-.134-11.598-2.455-13.918L510.091 879H410v-3.889c0-2.337-.762-4.832-1.91-6.25-1.763-2.18-2.758-2.387-13-2.699l-11.09-.339v-9.762c0-11.28-1.1-15.33-4.597-16.923-3.244-1.478-51.979-1.45-55.039.032" fill="undefined" fill-rule="evenodd"/></svg>