<?xml version="1.0" standalone="no"?><!-- Generator: Adobe Fireworks CS6, Export SVG Extension by Aaron Beall (http://fireworks.abeall.com) . Version: 0.6.1  --><!DOCTYPE svg PUBLIC "-//W3C//DTD SVG 1.1//EN" "http://www.w3.org/Graphics/SVG/1.1/DTD/svg11.dtd"><svg id="logotipo_making.fw-Page%201" viewBox="0 0 1024 1024" style="background-color:#ffffff" version="1.1"	xmlns="http://www.w3.org/2000/svg" xmlns:xlink="http://www.w3.org/1999/xlink" xml:space="preserve"	x="0px" y="0px" width="1024px" height="1024px">	<g id="frame">		<g visibility="hidden">			<path d="M 8 259.25 C 8 120.4867 120.4867 8 259.25 8 L 761.75 8 C 900.5134 8 1013 120.4867 1013 259.25 L 1013 761.75 C 1013 900.5133 900.5134 1013 761.75 1013 L 259.25 1013 C 120.4867 1013 8 900.5133 8 761.75 L 8 259.25 Z" stroke="#7fff00" stroke-width="20" fill="#ffffff"/>		</g>		<g visibility="hidden">			<path d="M 6 258.5 C 6 119.0463 119.0463 6 258.5 6 L 763.5 6 C 902.9537 6 1016 119.0463 1016 258.5 L 1016 763.5 C 1016 902.9536 902.9537 1016 763.5 1016 L 258.5 1016 C 119.0463 1016 6 902.9536 6 763.5 L 6 258.5 Z" stroke="#7fff00" stroke-width="10" fill="none"/>		</g>	</g>	<g id="new%20sugestion%201">		<path d="M 997.3333 170.6667 L 997.0001 590.5947 " stroke="#777777" stroke-width="28" fill="none"/>		<path d="M 550 501 L 550 173 " stroke="#777777" stroke-width="28" fill="none"/>		<path id="Ellipse" d="M 550.123 173.7317 C 550.123 138.5332 650.1582 110 773.5615 110 C 896.9648 110 997.0001 138.5332 997.0001 173.7317 C 997.0001 208.9302 896.9648 237.4634 773.5615 237.4634 C 650.1582 237.4634 550.123 208.9302 550.123 173.7317 Z" stroke="#777777" stroke-width="28" fill="none"/>		<path id="Ellipse2" d="M 996.9868 310.2997 C 996.9956 310.5328 997.0001 310.7663 997.0001 311 C 997.0001 346.1985 896.9648 374.7317 773.5615 374.7317 C 658.452 374.7317 563.675 349.905 551.4553 318 " stroke="#777777" stroke-width="28" fill="none"/>		<path id="Ellipse3" d="M 996.9927 447.7464 C 996.9976 447.9202 997.0001 448.0941 997.0001 448.2683 C 997.0001 483.4668 896.9648 512 773.5615 512 C 663.4019 512 571.8637 489.2625 553.4849 459.3435 " stroke="#777777" stroke-width="28" fill="none"/>		<path id="Ellipse4" d="M 997.0001 590.5947 C 989.7808 623.9345 892.2673 650.6689 773.5615 650.6689 C 746.6552 650.6689 720.8597 649.3125 696.9699 646.8262 " stroke="#777777" stroke-width="28" fill="none"/>		<path id="Ellipse5" d="M 921.6866 282.7603 C 921.6866 276.644 926.6452 271.6859 932.7621 271.6859 C 938.879 271.6859 943.8376 276.644 943.8376 282.7603 C 943.8376 288.8766 938.879 293.8347 932.7621 293.8347 C 926.6452 293.8347 921.6866 288.8766 921.6866 282.7603 Z" stroke="#7fff00" stroke-width="18" fill="#7fff00"/>		<path id="Ellipse6" d="M 921.6866 424.5124 C 921.6866 418.3961 926.6452 413.438 932.7621 413.438 C 938.879 413.438 943.8376 418.3961 943.8376 424.5124 C 943.8376 430.6287 938.879 435.5868 932.7621 435.5868 C 926.6452 435.5868 921.6866 430.6287 921.6866 424.5124 Z" stroke="#7fff00" stroke-width="18" fill="#7fff00"/>		<path id="Ellipse7" d="M 921.6866 564.0496 C 921.6866 557.9333 926.6452 552.9752 932.7621 552.9752 C 938.879 552.9752 943.8376 557.9333 943.8376 564.0496 C 943.8376 570.1659 938.879 575.124 932.7621 575.124 C 926.6452 575.124 921.6866 570.1659 921.6866 564.0496 Z" stroke="#7fff00" stroke-width="18" fill="#7fff00"/>		<rect x="170.4879" y="884.5847" width="339.0103" height="22.4111" stroke="#777777" stroke-width="12" fill="#777777"/>		<rect x="299.3678" y="871.9784" width="105.0652" height="42.0216" stroke="#777777" stroke-width="12" fill="#777777"/>		<rect x="325.9843" y="843.9645" width="51.8322" height="63.0313" stroke="#777777" stroke-width="12" fill="#777777"/>		<path d="M 403.0319 457.4542 C 404.6595 457.4001 406.294 457.3728 407.9349 457.3728 C 457.5693 457.3728 500.1713 480.4178 525.9609 518.3255 C 534.0366 516.9297 542.3442 516.2021 550.8235 516.2021 C 630.1265 516.2021 694.4125 579.8531 694.4125 658.3729 C 694.4125 736.0676 631.4702 799.2045 553.3179 800.5225 L 170.3864 800.5272 C 92.0991 799.3616 29 736.1644 29 658.3729 C 29 597.0099 68.2618 544.7279 123.2699 524.8099 C 121.8244 516.7168 122.8582 505.7965 122.8582 497.2927 C 122.8582 418.773 187.1441 355.1219 266.4472 355.1219 C 331.6153 355.1219 386.6424 398.1048 404.1882 457 " stroke="#4da6ff" stroke-width="28" fill="none"/>		<path d="M 449.1937 542.7665 C 426.5487 527.9893 399.4279 519.3893 370.2781 519.3893 C 368.6372 519.3893 367.0027 519.4167 365.3751 519.4708 C 354.6702 480.1746 329.4401 450.3381 293.4556 432.3369 " stroke="#4da6ff" stroke-width="22" fill="none"/>	</g></svg>